<?xml version="1.0" standalone="no"?><!DOCTYPE svg PUBLIC "-//W3C//DTD SVG 1.1//EN" "http://www.w3.org/Graphics/SVG/1.1/DTD/svg11.dtd"><svg t="1769701883151" class="icon" viewBox="0 0 1024 1024" version="1.1" xmlns="http://www.w3.org/2000/svg" p-id="2790" xmlns:xlink="http://www.w3.org/1999/xlink" width="200" height="200"><path d="M319.018846 629.538522c-7.799238 0-15.598477-2.999707-21.497901-8.899131-11.898838-11.898838-11.898838-31.196953 0-43.095792l216.378869-216.67884c11.898838-11.898838 31.096963-11.898838 42.995802 0 11.898838 11.898838 11.898838 31.196953 0 43.095792L340.516746 620.739381c-5.899424 5.799434-13.698662 8.799141-21.4979 8.799141zM589.492432 358.864955c-7.799238 0-15.598477-2.999707-21.4979-8.899131-11.898838-11.898838-11.898838-31.196953 0-43.095792l54.094717-54.194707c11.898838-11.898838 31.096963-11.898838 42.995801 0 11.898838 11.898838 11.898838 31.196953 0 43.095791L610.990333 349.865833c-5.999414 5.999414-13.798652 8.999121-21.497901 8.999122zM751.776584 737.827946h-540.947173c-16.79836 0-30.397032-13.598672-30.397031-30.397031 0-16.79836 13.598672-30.397032 30.397031-30.397032h540.847183c16.79836 0 30.397032 13.598672 30.397032 30.397032s-13.498682 30.397032-30.297042 30.397031zM511.90001 1024c-69.093253 0-136.186701-13.498682-199.280539-40.296065C251.725417 957.906454 196.930768 921.010058 150.035348 874.014647c-47.095401-46.995411-83.991798-101.690069-109.689288-162.784103C13.548677 648.036715 0.049995 580.943267 0.049995 511.850015s13.598672-136.186701 40.196075-199.280539C66.04355 251.775413 102.939947 196.980764 150.035348 149.985353c47.095401-46.995411 101.690069-83.991798 162.684113-109.689288 63.093838-26.697393 130.187286-40.296065 199.280539-40.296065s136.186701 13.498682 199.280539 40.296065c60.994044 25.797481 115.788693 62.693878 162.684113 109.689288 47.095401 46.995411 83.991798 101.690069 109.689288 162.784103 26.697393 63.193829 40.196075 130.187286 40.196075 199.280539 0 92.790938-25.097549 183.582072-72.492921 262.674348-8.69915 14.498584-27.297334 19.098135-41.695928 10.498975-14.398594-8.69915-18.998145-27.297334-10.498975-41.795918 41.695928-69.693194 63.79377-149.685382 63.893761-231.277415 0-60.894053-11.898838-119.988282-35.396544-175.482863-22.697783-53.794747-55.2946-101.99004-96.690557-143.385997C789.572893 151.585197 741.27761 119.08837 687.582853 96.390587 631.988282 72.792891 572.894053 60.894053 512 60.894053S392.011718 72.792891 336.417147 96.390587C282.6224 119.08837 234.427107 151.585197 193.031149 193.081144s-73.992774 89.591251-96.690557 143.385998c-23.497705 55.594571-35.396543 114.6888-35.396544 175.482863 0 60.894053 11.898838 119.988282 35.396544 175.482863 22.697783 53.794747 55.2946 101.99004 96.690557 143.385997 41.395957 41.395957 89.691241 73.992774 143.385998 96.690558C392.011718 951.107118 451.105947 963.005956 512 963.005956c90.891124 0 178.48257-26.897373 253.375256-77.892393 13.898643-9.399082 32.796797-5.899424 42.29587 7.999219s5.899424 32.896787-7.999219 42.295869c-84.9917 58.094327-184.481984 88.591349-287.771897 88.591349z" p-id="2791" fill="#8a8a8a"></path></svg>