<?xml version="1.0" standalone="no"?><!DOCTYPE svg PUBLIC "-//W3C//DTD SVG 1.1//EN" "http://www.w3.org/Graphics/SVG/1.1/DTD/svg11.dtd"><svg t="1769702054350" class="icon" viewBox="0 0 1024 1024" version="1.1" xmlns="http://www.w3.org/2000/svg" p-id="6211" xmlns:xlink="http://www.w3.org/1999/xlink" width="200" height="200"><path d="M315.2 119.52a659.52 659.52 0 0 0 13.28 72.48c1.28 1.92 13.28-8 13.92-10.08s-4.96-31.2-4.96-33.12a270.08 270.08 0 0 1 34.56 7.04c1.92 0 1.92-11.36 1.92-13.92a323.36 323.36 0 0 0-58.72-22.4z m312.16-1.76A253.12 253.12 0 0 0 576 152c2.72 2.56 4.64 8.64 8.64 9.92s4.64-4.64 19.84-14.72a320 320 0 0 1 48-20.96c1.92-1.28-2.08-12-5.44-16s-0.48 0.64-19.68 7.52z m295.68 497.12c-49.28-10.24-51.36-24.8-49.44-27.52s24.48-6.24 75.84-74.4a246.24 246.24 0 0 0 41.12-168.32c-2.72-8-14.72-6.56-37.12 2.88a448 448 0 0 1-64.96 21.76c-2.72 0 4.64-9.92 34.56-80s23.52-125.12 16.96-125.76-75.52 33.12-119.2 48a355.36 355.36 0 0 1-105.44 17.44c-6.72-1.92 32-179.68 29.76-184.32s-33.28-8-110.88 19.36a605.92 605.92 0 0 0-148.16 82.24s-16-28.48-96-57.76a444.16 444.16 0 0 0-135.84-32c-3.36 0 2.24 25.92 7.84 64.96s12.16 110.88 12.16 112.8-19.2 2.88-64 2.56-142.24-4.8-148.8-2.08-6.4 38.56 24 103.36a448 448 0 0 0 72 108.32s-28.32 21.44-60.8 48a370.24 370.24 0 0 0-69.44 85.76c-1.92 5.28 20.8 19.84 64 24.8a356.16 356.16 0 0 1 88.48 24.48s-11.84 14.08-34.88 36.8S64 787.2 58.88 797.12s8.16 23.2 19.52 23.04 150.08-5.76 158.08-6.56-24.48 105.12-25.76 108.48 21.28 8.48 64 3.52A150.56 150.56 0 0 0 352 885.12a136.8 136.8 0 0 0 36.16 28.96 204.32 204.32 0 0 0 72.64 19.36s2.24 38.56 3.68 43.2 19.36 4.48 26.56 4.48a160 160 0 0 1 25.28 0 33.92 33.92 0 0 0 16 0 78.88 78.88 0 0 1 25.28 0 16 16 0 0 0 13.92-3.36c1.28-2.72 1.6-48 1.6-48a117.6 117.6 0 0 0 25.92-6.88c13.92-5.44 72.8-36.48 72.8-36.48a131.84 131.84 0 0 0 19.36 16 355.52 355.52 0 0 0 92.8 31.2c35.2 6.4 57.12-7.04 59.68-16s1.76-114.88 0-120.32 2.56-5.28 68-44.32a186.08 186.08 0 0 0 85.44-118.24c0.32-10.72-24.96-9.6-74.08-19.84z m-375.36 350.4a48 48 0 0 1-24.64 0.8 48 48 0 0 0-24-5.12c-6.56 1.44-10.56 6.08-12.64 3.36a98.56 98.56 0 0 1-2.88-30.56c1.92-1.92 20 1.12 37.92 0s26.56-0.8 26.56 1.12 2.4 29.76-0.32 30.4z m131.84-128a182.08 182.08 0 0 1-20.48 20.8 250.72 250.72 0 0 0-39.36-25.6c-3.36 1.28-8 6.08-6.56 8.64s32 24.32 30.72 26.4-18.56 14.08-20.48 12.16a416 416 0 0 0-39.36-30.24c-2.72 0-10.56 6.08-9.28 8.64s38.08 26.24 34.08 28.96-25.12 12.16-27.84 10.24-30.88-31.04-33.44-30.88-9.92 4-7.84 7.36 22.88 28.32 22.88 28.32a497.44 497.44 0 0 1-130.24-1.6c-59.2-10.88-100.96-76.32-120-145.92s-19.04-217.76 1.6-299.68 57.12-179.2 185.28-180.16c64 0 141.6 3.52 202.08 109.28s53.92 190.4 37.44 284.96-42.72 151.04-59.04 169.12z m196-89.92c-56.16 28.96-62.88 32-64 36.96s2.88 116.16-1.76 116.96a417.28 417.28 0 0 1-80-14.72c-22.72-7.84-32-15.04-32-16.96a338.72 338.72 0 0 0 45.28-72.16 187.84 187.84 0 0 0 12.96-48s73.12 3.36 80-48-29.12-59.68-39.68-61.44a99.52 99.52 0 0 0-21.28-2.56s18.56-164.96-37.28-256-115.36-139.2-236.16-134.24-185.44 68.48-215.04 192-21.76 194.08-21.76 194.08-59.04 2.4-57.12 75.52 78.88 58.56 78.88 58.56a112 112 0 0 0 17.44 62.4c19.52 29.76 28.16 40.96 28.16 40.96s-77.92 29.76-78.56 25.28 20-72.64 17.28-80-16-21.76-20.8-21.76-155.36 6.56-156.8 0 33.44-60 68.32-104.16 52-60.8 51.36-66.88-24.16-33.76-75.36-41.28-71.84-5.92-70.56-8.64a528 528 0 0 1 85.6-87.04 122.72 122.72 0 0 0 40.32-34.88A565.76 565.76 0 0 1 121.76 352c-28.32-52.96-29.92-88.16-28-90.08 4.8-4.8 215.84 0.96 216.48-3.04S280.32 80 286.4 80a733.76 733.76 0 0 1 144 59.36c42.08 26.88 44.16 36.8 55.36 36.16s64-51.04 134.88-78.08 94.72-28.64 94.72-25.92-22.88 116.8-27.36 138.08-7.04 43.84-2.24 45.12a446.72 446.72 0 0 0 132-16c63.04-17.76 108-42.72 108.64-38.08a873.28 873.28 0 0 1-57.92 145.28c-19.04 29.44-26.88 54.72-22.88 56.64s26.56-4.8 69.6-17.76 48-15.04 48-12.96a216.8 216.8 0 0 1-35.2 122.24 526.4 526.4 0 0 1-88.96 93.76 67.04 67.04 0 0 0 32 41.6c18.72 8.48 91.2 19.2 90.56 23.2a200.96 200.96 0 0 1-86.08 95.52z m-99.68-84.96c2.08-2.08 37.92 0 32 31.04s-44.64 42.56-45.44 38.4a358.4 358.4 0 0 1 10.4-37.28c4.48-18.72-0.96-27.2 3.04-31.2z m-500.96 77.92c-1.92 0-37.92-4.32-38.08-30.24a60 60 0 0 1 26.88-48 432 432 0 0 1 11.2 78.24zM519.36 400c117.6-0.96 148.96 21.44 154.88 21.44s7.04-32 5.6-39.2-59.36-35.36-162.4-35.84-145.28 25.12-150.56 27.04c-19.2 6.72-11.52 48-5.6 51.84S401.76 400 519.36 400z m-145.6-16c4-8.32 52.32-27.04 149.28-22.4s142.4 20.8 142.4 26.08 3.36 13.92 0 13.92a464 464 0 0 0-146.88-17.6 690.88 690.88 0 0 0-141.92 20.32c-5.44-1.6-4.16-18.24-2.88-20.32z m313.44 150.24c2.56-91.04-80-104.32-124.96-86.08s-64 88.16-26.88 139.04 149.28 37.6 151.84-53.44zM547.2 576c-30.88-41.76-16-98.56 22.08-114.24s104.64-4.16 102.56 70.72-93.76 85.6-124.64 43.52z m-52.16-51.2c2.4-83.84-74.08-96-115.04-80s-59.36 81.28-24.64 128 137.28 35.2 139.68-48z m-108.64-65.92c33.76-13.76 96-3.84 94.56 65.12s-86.4 78.56-114.88 40.16-14.08-90.88 20.32-105.28zM432 526.4a17.12 17.12 0 0 0-24.48-16.8 17.92 17.92 0 0 0-5.28 27.2A16.96 16.96 0 0 0 432 526.4z m188 7.2a17.12 17.12 0 0 0-24.48-16.8 17.92 17.92 0 0 0-5.28 27.2 16.96 16.96 0 0 0 30.4-10.56z m-169.12 98.88c0-2.56 0-12.16-3.2-12.96a144 144 0 0 1-48.8 4.96 86.88 86.88 0 0 1-48-20.64c-1.92 0-9.12 9.12-7.36 11.68a80 80 0 0 0 48 23.04 105.12 105.12 0 0 0 59.36-6.08z m232-22.24A143.04 143.04 0 0 1 640 633.76a86.88 86.88 0 0 1-52.32 0c-1.92 0-4.96 11.84-2.24 13.6a80 80 0 0 0 52.48 3.04 105.12 105.12 0 0 0 53.12-28.96c-0.96-2.88-4.8-11.68-8.16-11.2zM514.08 736c-27.2 0-24.16-98.24-25.12-101.44s-12.64 0-12.48 1.6-9.76 116.48 38.24 117.12 32.8-120.8 32.8-120.8a35.68 35.68 0 0 0-12.64 0c-2.56 2.24 6.56 103.52-20.8 103.52z m-138.24 6.24c-2.72 0-14.56 9.44-18.4 18.08a84.96 84.96 0 0 0-3.04 28 19.52 19.52 0 0 0 11.36 3.84c1.92 0 1.28-14.56 1.76-22.56s12.48-14.72 14.4-17.44-3.36-8.64-5.92-9.28z m260.32-8.64c-2.72 0-11.2 10.08-11.2 10.08a53.28 53.28 0 0 1 23.36 15.04c7.36 10.56 0.96 28.48 0.96 30.56s8 0 12.64 0 4.48-16-1.6-32a43.04 43.04 0 0 0-24-23.2z m-135.68 64c-75.04 2.56-107.2-19.36-110.4-20.32s-5.92 12-4.48 14.72 36 20.96 112 22.4 129.28-25.6 129.92-28.32a29.76 29.76 0 0 0-2.72-13.28 443.36 443.36 0 0 1-124.16 24.8z" fill="#1D1D1B" p-id="6212"></path></svg>