<?xml version="1.0" standalone="no"?><!DOCTYPE svg PUBLIC "-//W3C//DTD SVG 1.1//EN" "http://www.w3.org/Graphics/SVG/1.1/DTD/svg11.dtd"><svg t="1769702512425" class="icon" viewBox="0 0 1219 1024" version="1.1" xmlns="http://www.w3.org/2000/svg" p-id="11858" xmlns:xlink="http://www.w3.org/1999/xlink" width="238.0859375" height="200"><path d="M735.550917 1024a24.380209 24.380209 0 0 1-16.090939-6.095052 24.380209 24.380209 0 0 1-2.194218-34.376096l287.442668-328.40142a24.45335 24.45335 0 0 1 36.814116 32.181877l-287.68647 328.40142a24.380209 24.380209 0 0 1-18.285157 8.289271zM1194.630259 499.825499H24.380209a24.380209 24.380209 0 0 1 0-48.760419h1102.229266L630.472214 43.184177A24.40459 24.40459 0 0 1 661.678882 5.638655l548.310909 451.033873A24.380209 24.380209 0 0 1 1194.630259 499.825499z" fill="#666666" p-id="11859"></path></svg>